<svg width="47" height="47" viewBox="0 0 47 47" fill="none" xmlns="http://www.w3.org/2000/svg">
<circle cx="23.5" cy="23.5" r="23.5" fill="#1D2869"/>
<path d="M18.5 37.5V34.5H14V31.5H17V16.5H14V13.5H18.5V10.5H21.5V13.5H24.5V10.5H27.5V13.6875C28.8 14.0375 29.875 14.744 30.725 15.807C31.575 16.87 32 18.101 32 19.5C32 20.225 31.875 20.919 31.625 21.582C31.375 22.245 31.025 22.8385 30.575 23.3625C31.45 23.8875 32.1565 24.6 32.6945 25.5C33.2325 26.4 33.501 27.4 33.5 28.5C33.5 30.15 32.9125 31.5625 31.7375 32.7375C30.5625 33.9125 29.15 34.5 27.5 34.5V37.5H24.5V34.5H21.5V37.5H18.5ZM20 22.5H26C26.825 22.5 27.5315 22.2065 28.1195 21.6195C28.7075 21.0325 29.001 20.326 29 19.5C28.999 18.674 28.7055 17.968 28.1195 17.382C27.5335 16.796 26.827 16.502 26 16.5H20V22.5ZM20 31.5H27.5C28.325 31.5 29.0315 31.2065 29.6195 30.6195C30.2075 30.0325 30.501 29.326 30.5 28.5C30.499 27.674 30.2055 26.968 29.6195 26.382C29.0335 25.796 28.327 25.502 27.5 25.5H20V31.5Z" fill="white"/>
</svg>
