<svg width="47" height="47" viewBox="0 0 47 47" fill="none" xmlns="http://www.w3.org/2000/svg">
<circle cx="23.5" cy="23.5" r="23.5" fill="#691D59"/>
<path d="M14.2 29.7L17.3 26.6L23.5 32.8L29.7 26.6L32.8 29.7L23.5 39L14.2 29.7ZM14.2 17.3L17.3 20.4L23.5 14.2L28.925 19.625L32.025 16.525L23.5 8L14.2 17.3ZM35.9 26.6L39 23.5L35.9 20.4L32.8 23.5L35.9 26.6ZM11.1 26.6L14.2 23.5L11.1 20.4L8 23.5L11.1 26.6ZM23.5 26.6L26.6 23.5L23.5 20.4L20.4 23.5L23.5 26.6Z" stroke="#C7C34F" stroke-width="1.5" stroke-linecap="round" stroke-linejoin="round"/>
</svg>
