<svg width="47" height="47" viewBox="0 0 47 47" fill="none" xmlns="http://www.w3.org/2000/svg">
<path fill-rule="evenodd" clip-rule="evenodd" d="M0 23.5C0 10.5216 10.5216 0 23.5 0C36.4784 0 47 10.5216 47 23.5C47 36.4784 36.4784 47 23.5 47C10.5216 47 0 36.4784 0 23.5ZM25.239 7.30423C25.0414 7.02729 24.7805 6.80155 24.478 6.6458C24.1755 6.49006 23.8402 6.4088 23.5 6.4088C23.1598 6.4088 22.8245 6.49006 22.522 6.6458C22.2195 6.80155 21.9586 7.02729 21.761 7.30423L11.0792 22.2588C10.8206 22.621 10.6816 23.0549 10.6816 23.5C10.6816 23.9451 10.8206 24.379 11.0792 24.7412L21.761 39.6958C21.9586 39.9727 22.2195 40.1984 22.522 40.3542C22.8245 40.5099 23.1598 40.5912 23.5 40.5912C23.8402 40.5912 24.1755 40.5099 24.478 40.3542C24.7805 40.1984 25.0414 39.9727 25.239 39.6958L35.9208 24.7412C36.1794 24.379 36.3184 23.9451 36.3184 23.5C36.3184 23.0549 36.1794 22.621 35.9208 22.2588L25.239 7.30423ZM23.5 25.4719L18.5714 23.5L23.5 21.5281L28.4286 23.5L23.5 25.4719ZM24.2926 29.7553L28.2064 28.1915L23.5 34.7779L18.7936 28.1915L22.7074 29.7553C23.2163 29.9586 23.7837 29.9586 24.2926 29.7553ZM23.5 12.22L18.7936 18.8085L22.7074 17.2447C23.2163 17.0414 23.7837 17.0414 24.2926 17.2447L28.2064 18.8085L23.5 12.22Z" fill="#3EC5D7"/>
</svg>
