<svg width="31" height="31" viewBox="0 0 31 31" fill="none" xmlns="http://www.w3.org/2000/svg">
<path d="M0.4312 12.8491L7.0168 6.26301C7.38266 5.89712 7.81386 5.63577 8.3104 5.47895C8.80693 5.32214 9.31653 5.29601 9.83919 5.40055L11.8776 5.83178C10.4664 7.50443 9.35573 9.02028 8.5456 10.3793C7.73546 11.7383 6.95146 13.3849 6.1936 15.3189L0.4312 12.8491ZM8.4672 16.4165C9.06826 14.5348 9.88519 12.7576 10.918 11.085C11.9508 9.4123 13.1984 7.84419 14.6608 6.38062C16.9605 4.08072 19.5869 2.36259 22.54 1.22623C25.4931 0.0898711 28.2501 -0.256682 30.8112 0.186571C31.2555 2.74782 30.9157 5.50509 29.792 8.45837C28.6683 11.4116 26.9565 14.0382 24.6568 16.3381C23.2195 17.7756 21.6515 19.0238 19.9528 20.0828C18.2541 21.1418 16.464 21.9713 14.5824 22.5714L8.4672 16.4165ZM19.2864 11.7122C19.8875 12.3133 20.626 12.6139 21.502 12.6139C22.378 12.6139 23.116 12.3133 23.716 11.7122C24.316 11.1111 24.6165 10.373 24.6176 9.49803C24.6186 8.62302 24.3181 7.88444 23.716 7.28228C23.1139 6.68013 22.3759 6.37957 21.502 6.38062C20.6281 6.38166 19.8895 6.68222 19.2864 7.28228C18.6832 7.88235 18.3827 8.62093 18.3848 9.49803C18.3869 10.3751 18.6874 11.1132 19.2864 11.7122ZM18.1888 30.5688L15.68 24.806C17.6139 24.048 19.2671 23.264 20.6396 22.4538C22.0121 21.6436 23.5341 20.5328 25.2056 19.1215L25.5976 21.1601C25.7021 21.6828 25.676 22.1992 25.5192 22.7094C25.3624 23.2195 25.1011 23.657 24.7352 24.0219L18.1888 30.5688ZM2.94 21.4345C3.85467 20.5198 4.96533 20.0556 6.272 20.042C7.57866 20.0284 8.68933 20.4795 9.604 21.3953C10.5187 22.3111 10.976 23.4218 10.976 24.7275C10.976 26.0333 10.5187 27.144 9.604 28.0598C8.95066 28.7132 7.85986 29.2751 6.33158 29.7455C4.8033 30.2159 2.69278 30.6341 0 31C0.365867 28.3081 0.783999 26.2042 1.2544 24.6883C1.7248 23.1725 2.28667 22.0879 2.94 21.4345Z" fill="white"/>
</svg>
