<svg width="28" height="28" viewBox="0 0 28 28" fill="none" xmlns="http://www.w3.org/2000/svg">
<path d="M21.0667 26.9333L17.3333 22.9333L18.9333 21.3333L21.0667 23.4667L25.8667 18.6667L27.4667 20.5333L21.0667 26.9333ZM14.6667 12H10.6667V21.3333H13.4667C13.6 20.2667 14.1333 19.2 14.6667 18.2667V12ZM18.6667 12V15.0667C19.4667 14.8 20.4 14.6667 21.3333 14.6667C21.7333 14.6667 22.2667 14.6667 22.6667 14.8V12H18.6667ZM13.4667 24H0V28H15.3333C14.4 26.9333 13.7333 25.4667 13.4667 24ZM25.3333 6.66667L12.6667 0L0 6.66667V9.33333H25.3333V6.66667ZM6.66667 21.3333V12H2.66667V21.3333H6.66667Z" fill="#5FC74A"/>
</svg>
