<svg width="24" height="24" viewBox="0 0 24 24" fill="none" xmlns="http://www.w3.org/2000/svg">
<path d="M16.6145 23.2803C15.7307 23.2803 14.8865 23.1346 14.0819 22.8433C13.2773 22.5519 12.5544 22.1513 11.9131 21.6414L9.71603 23.796C9.5844 23.932 9.41616 24 9.2113 24C9.00644 24 8.82484 23.932 8.66649 23.796C8.52794 23.6406 8.45866 23.4624 8.45866 23.2614C8.45866 23.0603 8.52794 22.8952 8.66649 22.7661L10.8621 20.6099C10.3425 19.9806 9.93425 19.2716 9.63735 18.4829C9.34045 17.6943 9.192 16.8654 9.192 15.9961C9.192 13.9789 9.91545 12.2593 11.3623 10.8374C12.8082 9.41459 14.5604 8.70608 16.6189 8.71191H23.9999V15.9903C24.0117 18.0114 23.2957 19.7315 21.8518 21.1504C20.4079 22.5694 18.6621 23.2794 16.6145 23.2803ZM12.7771 19.762C12.9354 19.9174 13.1106 19.9951 13.3026 19.9951C13.4946 19.9951 13.6697 19.9174 13.8281 19.762L17.1385 16.5118C17.2969 16.3564 17.376 16.1845 17.376 15.9961C17.376 15.8077 17.2969 15.6358 17.1385 15.4804C16.9802 15.325 16.8055 15.2473 16.6145 15.2473C16.4235 15.2473 16.2483 15.325 16.089 15.4804L12.7785 18.7306C12.6202 18.886 12.541 19.0579 12.541 19.2463C12.541 19.4347 12.6202 19.6062 12.7785 19.7606M3.69937 11.6547C2.67209 11.6547 1.79871 11.3017 1.07923 10.5956C0.359743 9.88952 0 9.03193 0 8.02282V4.37052H3.72163C4.74989 4.37052 5.62377 4.72356 6.34325 5.42965C7.06274 6.13573 7.42248 6.99332 7.42248 8.00243V11.6547H3.69937ZM10.9615 4.37052V2.18526C10.9615 1.57339 11.1768 1.05621 11.6073 0.633726C12.0378 0.211242 12.5648 0 13.1883 0H15.415V2.18526C15.415 2.79713 15.1998 3.31431 14.7693 3.7368C14.3388 4.15928 13.8118 4.37052 13.1883 4.37052H10.9615Z" fill="white"/>
</svg>
