<svg width="35" height="29" viewBox="0 0 35 29" fill="none" xmlns="http://www.w3.org/2000/svg">
<path fill-rule="evenodd" clip-rule="evenodd" d="M31.3671 8.47828C31.2741 8.4728 31.175 8.47061 31.0699 8.47171H26.9231C23.5269 8.47171 20.6217 11.1453 20.6217 14.6303C20.6217 18.1152 23.5285 20.7888 26.9231 20.7888H31.0699C31.175 20.7899 31.2746 20.7877 31.3688 20.7822C32.0668 20.7401 32.7257 20.4457 33.2227 19.9538C33.7197 19.4619 34.021 18.8061 34.0703 18.1086C34.0769 18.0101 34.0769 17.9033 34.0769 17.8048V11.4557C34.0769 11.3572 34.0769 11.2504 34.0703 11.1519C34.021 10.4544 33.7197 9.79856 33.2227 9.30667C32.7257 8.81478 32.0651 8.52036 31.3671 8.47828ZM26.5602 16.2725C27.4339 16.2725 28.1417 15.5368 28.1417 14.6303C28.1417 13.7237 27.4339 12.988 26.5602 12.988C25.6848 12.988 24.977 13.7237 24.977 14.6303C24.977 15.5368 25.6848 16.2725 26.5602 16.2725Z" fill="#576CFE"/>
<path fill-rule="evenodd" clip-rule="evenodd" d="M31.0686 23.252C31.1254 23.2497 31.1819 23.2609 31.2336 23.2846C31.2852 23.3082 31.3306 23.3437 31.3659 23.3882C31.4013 23.4327 31.4257 23.4849 31.4371 23.5405C31.4485 23.5962 31.4466 23.6538 31.4316 23.7086C31.1031 24.8779 30.5792 25.8764 29.74 26.7139C28.5099 27.9457 26.9514 28.4893 25.0267 28.7487C23.1545 29 20.765 29 17.7465 29H14.278C11.2595 29 8.8683 29 6.99775 28.7487C5.073 28.4893 3.51448 27.944 2.28441 26.7156C1.05598 25.4855 0.510749 23.927 0.251269 22.0023C1.95775e-07 20.1301 0 17.7405 0 14.722V14.5381C0 11.5196 1.95775e-07 9.12843 0.251269 7.25624C0.510749 5.33149 1.05598 3.77296 2.28441 2.5429C3.51448 1.31447 5.073 0.769238 6.99775 0.509758C8.86994 0.260132 11.2595 0.260132 14.278 0.260132H17.7465C20.765 0.260132 23.1561 0.260132 25.0267 0.511401C26.9514 0.770881 28.5099 1.31612 29.74 2.54454C30.5792 3.38539 31.1031 4.38225 31.4316 5.55155C31.4466 5.60635 31.4485 5.66392 31.4371 5.71959C31.4257 5.77526 31.4013 5.82745 31.3659 5.87193C31.3306 5.91641 31.2852 5.95192 31.2336 5.97558C31.1819 5.99924 31.1254 6.01039 31.0686 6.00811H26.9235C22.2644 6.00811 18.1587 9.68681 18.1587 14.6301C18.1587 19.5733 22.2644 23.252 26.9235 23.252H31.0686ZM8.21139 20.7886C7.88472 20.7886 7.57143 20.6588 7.34044 20.4278C7.10945 20.1969 6.97968 19.8836 6.97968 19.5569V9.70323C6.97968 9.37656 7.10945 9.06327 7.34044 8.83228C7.57143 8.60129 7.88472 8.47152 8.21139 8.47152C8.53806 8.47152 8.85135 8.60129 9.08234 8.83228C9.31333 9.06327 9.4431 9.37656 9.4431 9.70323V19.5569C9.4431 19.8836 9.31333 20.1969 9.08234 20.4278C8.85135 20.6588 8.53806 20.7886 8.21139 20.7886Z" fill="#576CFE"/>
</svg>
