<svg width="355" height="610" viewBox="0 0 355 610" fill="none" xmlns="http://www.w3.org/2000/svg">
<mask id="path-1-inside-1_56_1513" fill="white">
<path d="M330 0C343.807 0 355 11.1929 355 25V313.012C354.834 313.005 354.668 313 354.5 313C348.149 313 343 318.149 343 324.5C343 330.851 348.149 336 354.5 336C354.668 336 354.834 335.994 355 335.987V610H346.987C346.994 609.834 347 609.668 347 609.5C347 603.149 341.851 598 335.5 598C329.149 598 324 603.149 324 609.5C324 609.668 324.006 609.834 324.013 610H311.987C311.994 609.834 312 609.668 312 609.5C312 603.149 306.851 598 300.5 598C294.149 598 289 603.149 289 609.5C289 609.668 289.006 609.834 289.013 610H276.987C276.994 609.834 277 609.668 277 609.5C277 603.149 271.851 598 265.5 598C259.149 598 254 603.149 254 609.5C254 609.668 254.006 609.834 254.013 610H241.987C241.994 609.834 242 609.668 242 609.5C242 603.149 236.851 598 230.5 598C224.149 598 219 603.149 219 609.5C219 609.668 219.006 609.834 219.013 610H206.987C206.994 609.834 207 609.668 207 609.5C207 603.149 201.851 598 195.5 598C189.149 598 184 603.149 184 609.5C184 609.668 184.006 609.834 184.013 610H171.987C171.994 609.834 172 609.668 172 609.5C172 603.149 166.851 598 160.5 598C154.149 598 149 603.149 149 609.5C149 609.668 149.006 609.834 149.013 610H136.987C136.994 609.834 137 609.668 137 609.5C137 603.149 131.851 598 125.5 598C119.149 598 114 603.149 114 609.5C114 609.668 114.006 609.834 114.013 610H101.987C101.994 609.834 102 609.668 102 609.5C102 603.149 96.8513 598 90.5 598C84.1487 598 79 603.149 79 609.5C79 609.668 79.0056 609.834 79.0127 610H66.9873C66.9944 609.834 67 609.668 67 609.5C67 603.149 61.8513 598 55.5 598C49.1487 598 44 603.149 44 609.5C44 609.668 44.0056 609.834 44.0127 610H31.9873C31.9944 609.834 32 609.668 32 609.5C32 603.149 26.8513 598 20.5 598C14.1487 598 9 603.149 9 609.5C9 609.668 9.0056 609.834 9.0127 610H0V335.987C6.11927 335.725 11 330.684 11 324.5C11 318.316 6.11929 313.274 0 313.012V25C3.54365e-06 11.1929 11.1929 4.6306e-07 25 0H330Z"/>
</mask>
<g filter="url(#filter0_i_56_1513)">
<path d="M330 0C343.807 0 355 11.1929 355 25V313.012C354.834 313.005 354.668 313 354.5 313C348.149 313 343 318.149 343 324.5C343 330.851 348.149 336 354.5 336C354.668 336 354.834 335.994 355 335.987V610H346.987C346.994 609.834 347 609.668 347 609.5C347 603.149 341.851 598 335.5 598C329.149 598 324 603.149 324 609.5C324 609.668 324.006 609.834 324.013 610H311.987C311.994 609.834 312 609.668 312 609.5C312 603.149 306.851 598 300.5 598C294.149 598 289 603.149 289 609.5C289 609.668 289.006 609.834 289.013 610H276.987C276.994 609.834 277 609.668 277 609.5C277 603.149 271.851 598 265.5 598C259.149 598 254 603.149 254 609.5C254 609.668 254.006 609.834 254.013 610H241.987C241.994 609.834 242 609.668 242 609.5C242 603.149 236.851 598 230.5 598C224.149 598 219 603.149 219 609.5C219 609.668 219.006 609.834 219.013 610H206.987C206.994 609.834 207 609.668 207 609.5C207 603.149 201.851 598 195.5 598C189.149 598 184 603.149 184 609.5C184 609.668 184.006 609.834 184.013 610H171.987C171.994 609.834 172 609.668 172 609.5C172 603.149 166.851 598 160.5 598C154.149 598 149 603.149 149 609.5C149 609.668 149.006 609.834 149.013 610H136.987C136.994 609.834 137 609.668 137 609.5C137 603.149 131.851 598 125.5 598C119.149 598 114 603.149 114 609.5C114 609.668 114.006 609.834 114.013 610H101.987C101.994 609.834 102 609.668 102 609.5C102 603.149 96.8513 598 90.5 598C84.1487 598 79 603.149 79 609.5C79 609.668 79.0056 609.834 79.0127 610H66.9873C66.9944 609.834 67 609.668 67 609.5C67 603.149 61.8513 598 55.5 598C49.1487 598 44 603.149 44 609.5C44 609.668 44.0056 609.834 44.0127 610H31.9873C31.9944 609.834 32 609.668 32 609.5C32 603.149 26.8513 598 20.5 598C14.1487 598 9 603.149 9 609.5C9 609.668 9.0056 609.834 9.0127 610H0V335.987C6.11927 335.725 11 330.684 11 324.5C11 318.316 6.11929 313.274 0 313.012V25C3.54365e-06 11.1929 11.1929 4.6306e-07 25 0H330Z" fill="#FFFFFE"/>
</g>
<g clip-path="url(#paint0_diamond_56_1513_clip_path)" data-figma-skip-parse="true" mask="url(#path-1-inside-1_56_1513)"><g transform="matrix(-0.00025 0.305 -0.1775 -0.000145492 177.75 305)"><rect x="0" y="0" width="1016.88" height="1031.01" fill="url(#paint0_diamond_56_1513)" opacity="0.24" shape-rendering="crispEdges"/><rect x="0" y="0" width="1016.88" height="1031.01" transform="scale(1 -1)" fill="url(#paint0_diamond_56_1513)" opacity="0.24" shape-rendering="crispEdges"/><rect x="0" y="0" width="1016.88" height="1031.01" transform="scale(-1 1)" fill="url(#paint0_diamond_56_1513)" opacity="0.24" shape-rendering="crispEdges"/><rect x="0" y="0" width="1016.88" height="1031.01" transform="scale(-1)" fill="url(#paint0_diamond_56_1513)" opacity="0.24" shape-rendering="crispEdges"/></g></g><path d="M355 313.012L354.787 318.007L360 318.23V313.012H355ZM355 335.987H360V330.769L354.787 330.992L355 335.987ZM355 610V615H360V610H355ZM346.987 610L341.992 609.786L341.769 615H346.987V610ZM324.013 610V615H329.231L329.008 609.786L324.013 610ZM311.987 610L306.992 609.786L306.769 615H311.987V610ZM289.013 610V615H294.231L294.008 609.786L289.013 610ZM276.987 610L271.992 609.786L271.769 615H276.987V610ZM254.013 610V615H259.231L259.008 609.786L254.013 610ZM241.987 610L236.992 609.786L236.769 615H241.987V610ZM219.013 610V615H224.231L224.008 609.786L219.013 610ZM206.987 610L201.992 609.786L201.769 615H206.987V610ZM184.013 610V615H189.231L189.008 609.786L184.013 610ZM171.987 610L166.992 609.786L166.769 615H171.987V610ZM149.013 610V615H154.231L154.008 609.786L149.013 610ZM136.987 610L131.992 609.786L131.769 615H136.987V610ZM114.013 610V615H119.231L119.008 609.786L114.013 610ZM101.987 610L96.9919 609.786L96.7688 615H101.987V610ZM79.0127 610V615H84.2312L84.0081 609.786L79.0127 610ZM66.9873 610L61.9919 609.786L61.7688 615H66.9873V610ZM44.0127 610V615H49.2312L49.0081 609.786L44.0127 610ZM31.9873 610L26.9919 609.786L26.7688 615H31.9873V610ZM9.0127 610V615H14.2312L14.0081 609.786L9.0127 610ZM0 610H-5V615H0V610ZM0 335.987L-0.213727 330.992L-5 331.197V335.987H0ZM0 313.012H-5V317.802L-0.213727 318.007L0 313.012ZM0 25L-5 25V25H0ZM25 0V-5V0ZM330 0V5C341.046 5 350 13.9543 350 25H355H360C360 8.43146 346.569 -5 330 -5V0ZM355 25H350V313.012H355H360V25H355ZM355 313.012L355.213 308.016C354.999 308.007 354.758 308 354.5 308V313V318C354.577 318 354.669 318.002 354.787 318.007L355 313.012ZM354.5 313V308C345.387 308 338 315.387 338 324.5H343H348C348 320.91 350.91 318 354.5 318V313ZM343 324.5H338C338 333.613 345.387 341 354.5 341V336V331C350.91 331 348 328.09 348 324.5H343ZM354.5 336V341C354.774 341 355.023 340.991 355.213 340.983L355 335.987L354.787 330.992C354.645 330.998 354.561 331 354.5 331V336ZM355 335.987H350V610H355H360V335.987H355ZM355 610V605H346.987V610V615H355V610ZM346.987 610L351.983 610.214C351.991 610.023 352 609.773 352 609.5H347H342C342 609.562 341.998 609.646 341.992 609.786L346.987 610ZM347 609.5H352C352 600.387 344.613 593 335.5 593V598V603C339.09 603 342 605.91 342 609.5H347ZM335.5 598V593C326.387 593 319 600.387 319 609.5H324H329C329 605.91 331.91 603 335.5 603V598ZM324 609.5H319C319 609.773 319.009 610.023 319.017 610.214L324.013 610L329.008 609.786C329.002 609.646 329 609.562 329 609.5H324ZM324.013 610V605H311.987V610V615H324.013V610ZM311.987 610L316.983 610.214C316.991 610.023 317 609.773 317 609.5H312H307C307 609.562 306.998 609.646 306.992 609.786L311.987 610ZM312 609.5H317C317 600.387 309.613 593 300.5 593V598V603C304.09 603 307 605.91 307 609.5H312ZM300.5 598V593C291.387 593 284 600.387 284 609.5H289H294C294 605.91 296.91 603 300.5 603V598ZM289 609.5H284C284 609.773 284.009 610.023 284.017 610.214L289.013 610L294.008 609.786C294.002 609.646 294 609.562 294 609.5H289ZM289.013 610V605H276.987V610V615H289.013V610ZM276.987 610L281.983 610.214C281.991 610.023 282 609.773 282 609.5H277H272C272 609.562 271.998 609.646 271.992 609.786L276.987 610ZM277 609.5H282C282 600.387 274.613 593 265.5 593V598V603C269.09 603 272 605.91 272 609.5H277ZM265.5 598V593C256.387 593 249 600.387 249 609.5H254H259C259 605.91 261.91 603 265.5 603V598ZM254 609.5H249C249 609.773 249.009 610.023 249.017 610.214L254.013 610L259.008 609.786C259.002 609.646 259 609.562 259 609.5H254ZM254.013 610V605H241.987V610V615H254.013V610ZM241.987 610L246.983 610.214C246.991 610.023 247 609.773 247 609.5H242H237C237 609.562 236.998 609.646 236.992 609.786L241.987 610ZM242 609.5H247C247 600.387 239.613 593 230.5 593V598V603C234.09 603 237 605.91 237 609.5H242ZM230.5 598V593C221.387 593 214 600.387 214 609.5H219H224C224 605.91 226.91 603 230.5 603V598ZM219 609.5H214C214 609.773 214.009 610.023 214.017 610.214L219.013 610L224.008 609.786C224.002 609.646 224 609.562 224 609.5H219ZM219.013 610V605H206.987V610V615H219.013V610ZM206.987 610L211.983 610.214C211.991 610.023 212 609.773 212 609.5H207H202C202 609.562 201.998 609.646 201.992 609.786L206.987 610ZM207 609.5H212C212 600.387 204.613 593 195.5 593V598V603C199.09 603 202 605.91 202 609.5H207ZM195.5 598V593C186.387 593 179 600.387 179 609.5H184H189C189 605.91 191.91 603 195.5 603V598ZM184 609.5H179C179 609.773 179.009 610.023 179.017 610.214L184.013 610L189.008 609.786C189.002 609.646 189 609.562 189 609.5H184ZM184.013 610V605H171.987V610V615H184.013V610ZM171.987 610L176.983 610.214C176.991 610.023 177 609.773 177 609.5H172H167C167 609.562 166.998 609.646 166.992 609.786L171.987 610ZM172 609.5H177C177 600.387 169.613 593 160.5 593V598V603C164.09 603 167 605.91 167 609.5H172ZM160.5 598V593C151.387 593 144 600.387 144 609.5H149H154C154 605.91 156.91 603 160.5 603V598ZM149 609.5H144C144 609.773 144.009 610.023 144.017 610.214L149.013 610L154.008 609.786C154.002 609.646 154 609.562 154 609.5H149ZM149.013 610V605H136.987V610V615H149.013V610ZM136.987 610L141.983 610.214C141.991 610.023 142 609.773 142 609.5H137H132C132 609.562 131.998 609.646 131.992 609.786L136.987 610ZM137 609.5H142C142 600.387 134.613 593 125.5 593V598V603C129.09 603 132 605.91 132 609.5H137ZM125.5 598V593C116.387 593 109 600.387 109 609.5H114H119C119 605.91 121.91 603 125.5 603V598ZM114 609.5H109C109 609.773 109.009 610.023 109.017 610.214L114.013 610L119.008 609.786C119.002 609.646 119 609.562 119 609.5H114ZM114.013 610V605H101.987V610V615H114.013V610ZM101.987 610L106.983 610.214C106.991 610.023 107 609.773 107 609.5H102H97C97 609.562 96.9979 609.646 96.9919 609.786L101.987 610ZM102 609.5H107C107 600.387 99.6127 593 90.5 593V598V603C94.0899 603 97 605.91 97 609.5H102ZM90.5 598V593C81.3873 593 74 600.387 74 609.5H79H84C84 605.91 86.9101 603 90.5 603V598ZM79 609.5H74C74 609.773 74.0091 610.023 74.0173 610.214L79.0127 610L84.0081 609.786C84.0021 609.646 84 609.562 84 609.5H79ZM79.0127 610V605H66.9873V610V615H79.0127V610ZM66.9873 610L71.9827 610.214C71.9909 610.023 72 609.773 72 609.5H67H62C62 609.562 61.9979 609.646 61.9919 609.786L66.9873 610ZM67 609.5H72C72 600.387 64.6127 593 55.5 593V598V603C59.0899 603 62 605.91 62 609.5H67ZM55.5 598V593C46.3873 593 39 600.387 39 609.5H44H49C49 605.91 51.9101 603 55.5 603V598ZM44 609.5H39C39 609.773 39.0091 610.023 39.0173 610.214L44.0127 610L49.0081 609.786C49.0021 609.646 49 609.562 49 609.5H44ZM44.0127 610V605H31.9873V610V615H44.0127V610ZM31.9873 610L36.9827 610.214C36.9909 610.023 37 609.773 37 609.5H32H27C27 609.562 26.9979 609.646 26.9919 609.786L31.9873 610ZM32 609.5H37C37 600.387 29.6127 593 20.5 593V598V603C24.0899 603 27 605.91 27 609.5H32ZM20.5 598V593C11.3873 593 4 600.387 4 609.5H9H14C14 605.91 16.9101 603 20.5 603V598ZM9 609.5H4C4 609.773 4.0091 610.023 4.01727 610.214L9.0127 610L14.0081 609.786C14.0021 609.646 14 609.562 14 609.5H9ZM9.0127 610V605H0V610V615H9.0127V610ZM0 610H5V335.987H0H-5V610H0ZM0 335.987L0.213727 340.983C8.99613 340.607 16 333.375 16 324.5H11H6C6 327.993 3.2424 330.844 -0.213727 330.992L0 335.987ZM11 324.5H16C16 315.626 8.99669 308.392 0.213727 308.016L0 313.012L-0.213727 318.007C3.24188 318.155 6 321.007 6 324.5H11ZM0 313.012H5V25H0H-5V313.012H0ZM0 25L5 25C5 13.9543 13.9543 5 25 5V0V-5C8.43146 -5 -5 8.43146 -5 25L0 25ZM25 0V5H330V0V-5H25V0Z" data-figma-gradient-fill="{&#34;type&#34;:&#34;GRADIENT_DIAMOND&#34;,&#34;stops&#34;:[{&#34;color&#34;:{&#34;r&#34;:1.0,&#34;g&#34;:0.065095171332359314,&#34;b&#34;:0.065095171332359314,&#34;a&#34;:1.0},&#34;position&#34;:0.076917678117752075},{&#34;color&#34;:{&#34;r&#34;:0.049779951572418213,&#34;g&#34;:0.22398695349693298,&#34;b&#34;:1.0,&#34;a&#34;:1.0},&#34;position&#34;:0.33172887563705444},{&#34;color&#34;:{&#34;r&#34;:1.0,&#34;g&#34;:0.91917753219604492,&#34;b&#34;:0.030130239203572273,&#34;a&#34;:1.0},&#34;position&#34;:0.65865641832351685},{&#34;color&#34;:{&#34;r&#34;:0.090500093996524811,&#34;g&#34;:0.57688212394714355,&#34;b&#34;:0.52013731002807617,&#34;a&#34;:1.0},&#34;position&#34;:1.0}],&#34;stopsVar&#34;:[{&#34;color&#34;:{&#34;r&#34;:1.0,&#34;g&#34;:0.065095171332359314,&#34;b&#34;:0.065095171332359314,&#34;a&#34;:1.0},&#34;position&#34;:0.076917678117752075},{&#34;color&#34;:{&#34;r&#34;:0.049779951572418213,&#34;g&#34;:0.22398695349693298,&#34;b&#34;:1.0,&#34;a&#34;:1.0},&#34;position&#34;:0.33172887563705444},{&#34;color&#34;:{&#34;r&#34;:1.0,&#34;g&#34;:0.91917753219604492,&#34;b&#34;:0.030130239203572273,&#34;a&#34;:1.0},&#34;position&#34;:0.65865641832351685},{&#34;color&#34;:{&#34;r&#34;:0.090500093996524811,&#34;g&#34;:0.57688212394714355,&#34;b&#34;:0.52013731002807617,&#34;a&#34;:1.0},&#34;position&#34;:1.0}],&#34;transform&#34;:{&#34;m00&#34;:-0.49999997019767761,&#34;m01&#34;:-355.0,&#34;m02&#34;:355.50,&#34;m10&#34;:610.0,&#34;m11&#34;:-0.29098361730575562,&#34;m12&#34;:0.14549179375171661},&#34;opacity&#34;:0.23999999463558197,&#34;blendMode&#34;:&#34;NORMAL&#34;,&#34;visible&#34;:true}" mask="url(#path-1-inside-1_56_1513)"/>
<defs>
<filter id="filter0_i_56_1513" x="0" y="0" width="355" height="614" filterUnits="userSpaceOnUse" color-interpolation-filters="sRGB">
<feFlood flood-opacity="0" result="BackgroundImageFix"/>
<feBlend mode="normal" in="SourceGraphic" in2="BackgroundImageFix" result="shape"/>
<feColorMatrix in="SourceAlpha" type="matrix" values="0 0 0 0 0 0 0 0 0 0 0 0 0 0 0 0 0 0 127 0" result="hardAlpha"/>
<feOffset dy="4"/>
<feGaussianBlur stdDeviation="2"/>
<feComposite in2="hardAlpha" operator="arithmetic" k2="-1" k3="1"/>
<feColorMatrix type="matrix" values="0 0 0 0 0 0 0 0 0 0 0 0 0 0 0 0 0 0 0.25 0"/>
<feBlend mode="normal" in2="shape" result="effect1_innerShadow_56_1513"/>
</filter>
<clipPath id="paint0_diamond_56_1513_clip_path"><path d="M355 313.012L354.787 318.007L360 318.23V313.012H355ZM355 335.987H360V330.769L354.787 330.992L355 335.987ZM355 610V615H360V610H355ZM346.987 610L341.992 609.786L341.769 615H346.987V610ZM324.013 610V615H329.231L329.008 609.786L324.013 610ZM311.987 610L306.992 609.786L306.769 615H311.987V610ZM289.013 610V615H294.231L294.008 609.786L289.013 610ZM276.987 610L271.992 609.786L271.769 615H276.987V610ZM254.013 610V615H259.231L259.008 609.786L254.013 610ZM241.987 610L236.992 609.786L236.769 615H241.987V610ZM219.013 610V615H224.231L224.008 609.786L219.013 610ZM206.987 610L201.992 609.786L201.769 615H206.987V610ZM184.013 610V615H189.231L189.008 609.786L184.013 610ZM171.987 610L166.992 609.786L166.769 615H171.987V610ZM149.013 610V615H154.231L154.008 609.786L149.013 610ZM136.987 610L131.992 609.786L131.769 615H136.987V610ZM114.013 610V615H119.231L119.008 609.786L114.013 610ZM101.987 610L96.9919 609.786L96.7688 615H101.987V610ZM79.0127 610V615H84.2312L84.0081 609.786L79.0127 610ZM66.9873 610L61.9919 609.786L61.7688 615H66.9873V610ZM44.0127 610V615H49.2312L49.0081 609.786L44.0127 610ZM31.9873 610L26.9919 609.786L26.7688 615H31.9873V610ZM9.0127 610V615H14.2312L14.0081 609.786L9.0127 610ZM0 610H-5V615H0V610ZM0 335.987L-0.213727 330.992L-5 331.197V335.987H0ZM0 313.012H-5V317.802L-0.213727 318.007L0 313.012ZM0 25L-5 25V25H0ZM25 0V-5V0ZM330 0V5C341.046 5 350 13.9543 350 25H355H360C360 8.43146 346.569 -5 330 -5V0ZM355 25H350V313.012H355H360V25H355ZM355 313.012L355.213 308.016C354.999 308.007 354.758 308 354.5 308V313V318C354.577 318 354.669 318.002 354.787 318.007L355 313.012ZM354.5 313V308C345.387 308 338 315.387 338 324.5H343H348C348 320.91 350.91 318 354.5 318V313ZM343 324.5H338C338 333.613 345.387 341 354.5 341V336V331C350.91 331 348 328.09 348 324.5H343ZM354.5 336V341C354.774 341 355.023 340.991 355.213 340.983L355 335.987L354.787 330.992C354.645 330.998 354.561 331 354.5 331V336ZM355 335.987H350V610H355H360V335.987H355ZM355 610V605H346.987V610V615H355V610ZM346.987 610L351.983 610.214C351.991 610.023 352 609.773 352 609.5H347H342C342 609.562 341.998 609.646 341.992 609.786L346.987 610ZM347 609.5H352C352 600.387 344.613 593 335.5 593V598V603C339.09 603 342 605.91 342 609.5H347ZM335.5 598V593C326.387 593 319 600.387 319 609.5H324H329C329 605.91 331.91 603 335.5 603V598ZM324 609.5H319C319 609.773 319.009 610.023 319.017 610.214L324.013 610L329.008 609.786C329.002 609.646 329 609.562 329 609.5H324ZM324.013 610V605H311.987V610V615H324.013V610ZM311.987 610L316.983 610.214C316.991 610.023 317 609.773 317 609.5H312H307C307 609.562 306.998 609.646 306.992 609.786L311.987 610ZM312 609.5H317C317 600.387 309.613 593 300.5 593V598V603C304.09 603 307 605.91 307 609.5H312ZM300.5 598V593C291.387 593 284 600.387 284 609.5H289H294C294 605.91 296.91 603 300.5 603V598ZM289 609.5H284C284 609.773 284.009 610.023 284.017 610.214L289.013 610L294.008 609.786C294.002 609.646 294 609.562 294 609.5H289ZM289.013 610V605H276.987V610V615H289.013V610ZM276.987 610L281.983 610.214C281.991 610.023 282 609.773 282 609.5H277H272C272 609.562 271.998 609.646 271.992 609.786L276.987 610ZM277 609.5H282C282 600.387 274.613 593 265.5 593V598V603C269.09 603 272 605.91 272 609.5H277ZM265.5 598V593C256.387 593 249 600.387 249 609.5H254H259C259 605.91 261.91 603 265.5 603V598ZM254 609.5H249C249 609.773 249.009 610.023 249.017 610.214L254.013 610L259.008 609.786C259.002 609.646 259 609.562 259 609.5H254ZM254.013 610V605H241.987V610V615H254.013V610ZM241.987 610L246.983 610.214C246.991 610.023 247 609.773 247 609.5H242H237C237 609.562 236.998 609.646 236.992 609.786L241.987 610ZM242 609.5H247C247 600.387 239.613 593 230.5 593V598V603C234.09 603 237 605.91 237 609.5H242ZM230.5 598V593C221.387 593 214 600.387 214 609.5H219H224C224 605.91 226.91 603 230.5 603V598ZM219 609.5H214C214 609.773 214.009 610.023 214.017 610.214L219.013 610L224.008 609.786C224.002 609.646 224 609.562 224 609.5H219ZM219.013 610V605H206.987V610V615H219.013V610ZM206.987 610L211.983 610.214C211.991 610.023 212 609.773 212 609.5H207H202C202 609.562 201.998 609.646 201.992 609.786L206.987 610ZM207 609.5H212C212 600.387 204.613 593 195.5 593V598V603C199.09 603 202 605.91 202 609.5H207ZM195.5 598V593C186.387 593 179 600.387 179 609.5H184H189C189 605.91 191.91 603 195.5 603V598ZM184 609.5H179C179 609.773 179.009 610.023 179.017 610.214L184.013 610L189.008 609.786C189.002 609.646 189 609.562 189 609.5H184ZM184.013 610V605H171.987V610V615H184.013V610ZM171.987 610L176.983 610.214C176.991 610.023 177 609.773 177 609.5H172H167C167 609.562 166.998 609.646 166.992 609.786L171.987 610ZM172 609.5H177C177 600.387 169.613 593 160.5 593V598V603C164.09 603 167 605.91 167 609.5H172ZM160.5 598V593C151.387 593 144 600.387 144 609.5H149H154C154 605.91 156.91 603 160.5 603V598ZM149 609.5H144C144 609.773 144.009 610.023 144.017 610.214L149.013 610L154.008 609.786C154.002 609.646 154 609.562 154 609.5H149ZM149.013 610V605H136.987V610V615H149.013V610ZM136.987 610L141.983 610.214C141.991 610.023 142 609.773 142 609.5H137H132C132 609.562 131.998 609.646 131.992 609.786L136.987 610ZM137 609.5H142C142 600.387 134.613 593 125.5 593V598V603C129.09 603 132 605.91 132 609.5H137ZM125.5 598V593C116.387 593 109 600.387 109 609.5H114H119C119 605.91 121.91 603 125.5 603V598ZM114 609.5H109C109 609.773 109.009 610.023 109.017 610.214L114.013 610L119.008 609.786C119.002 609.646 119 609.562 119 609.5H114ZM114.013 610V605H101.987V610V615H114.013V610ZM101.987 610L106.983 610.214C106.991 610.023 107 609.773 107 609.5H102H97C97 609.562 96.9979 609.646 96.9919 609.786L101.987 610ZM102 609.5H107C107 600.387 99.6127 593 90.5 593V598V603C94.0899 603 97 605.91 97 609.5H102ZM90.5 598V593C81.3873 593 74 600.387 74 609.5H79H84C84 605.91 86.9101 603 90.5 603V598ZM79 609.5H74C74 609.773 74.0091 610.023 74.0173 610.214L79.0127 610L84.0081 609.786C84.0021 609.646 84 609.562 84 609.5H79ZM79.0127 610V605H66.9873V610V615H79.0127V610ZM66.9873 610L71.9827 610.214C71.9909 610.023 72 609.773 72 609.5H67H62C62 609.562 61.9979 609.646 61.9919 609.786L66.9873 610ZM67 609.5H72C72 600.387 64.6127 593 55.5 593V598V603C59.0899 603 62 605.91 62 609.5H67ZM55.5 598V593C46.3873 593 39 600.387 39 609.5H44H49C49 605.91 51.9101 603 55.5 603V598ZM44 609.5H39C39 609.773 39.0091 610.023 39.0173 610.214L44.0127 610L49.0081 609.786C49.0021 609.646 49 609.562 49 609.5H44ZM44.0127 610V605H31.9873V610V615H44.0127V610ZM31.9873 610L36.9827 610.214C36.9909 610.023 37 609.773 37 609.5H32H27C27 609.562 26.9979 609.646 26.9919 609.786L31.9873 610ZM32 609.5H37C37 600.387 29.6127 593 20.5 593V598V603C24.0899 603 27 605.91 27 609.5H32ZM20.5 598V593C11.3873 593 4 600.387 4 609.5H9H14C14 605.91 16.9101 603 20.5 603V598ZM9 609.5H4C4 609.773 4.0091 610.023 4.01727 610.214L9.0127 610L14.0081 609.786C14.0021 609.646 14 609.562 14 609.5H9ZM9.0127 610V605H0V610V615H9.0127V610ZM0 610H5V335.987H0H-5V610H0ZM0 335.987L0.213727 340.983C8.99613 340.607 16 333.375 16 324.5H11H6C6 327.993 3.2424 330.844 -0.213727 330.992L0 335.987ZM11 324.5H16C16 315.626 8.99669 308.392 0.213727 308.016L0 313.012L-0.213727 318.007C3.24188 318.155 6 321.007 6 324.5H11ZM0 313.012H5V25H0H-5V313.012H0ZM0 25L5 25C5 13.9543 13.9543 5 25 5V0V-5C8.43146 -5 -5 8.43146 -5 25L0 25ZM25 0V5H330V0V-5H25V0Z" mask="url(#path-1-inside-1_56_1513)"/></clipPath><linearGradient id="paint0_diamond_56_1513" x1="0" y1="0" x2="500" y2="500" gradientUnits="userSpaceOnUse">
<stop offset="0.0769177" stop-color="#FF1111"/>
<stop offset="0.331729" stop-color="#0D39FF"/>
<stop offset="0.658656" stop-color="#FFEA08"/>
<stop offset="1" stop-color="#179385"/>
</linearGradient>
</defs>
</svg>
