<svg width="104" height="104" viewBox="0 0 104 104" fill="none" xmlns="http://www.w3.org/2000/svg">
<g filter="url(#filter0_d_53_1511)">
<path d="M46.12 55.56L37.09 46.53C36.32 45.76 35.34 45.375 34.15 45.375C32.96 45.375 31.98 45.76 31.21 46.53C30.44 47.3 30.055 48.28 30.055 49.47C30.055 50.66 30.44 51.64 31.21 52.41L43.18 64.38C44.02 65.22 45 65.64 46.12 65.64C47.24 65.64 48.22 65.22 49.06 64.38L72.79 40.65C73.56 39.88 73.945 38.9 73.945 37.71C73.945 36.52 73.56 35.54 72.79 34.77C72.02 34 71.04 33.615 69.85 33.615C68.66 33.615 67.68 34 66.91 34.77L46.12 55.56ZM52 90C46.19 90 40.73 88.8968 35.62 86.6904C30.51 84.484 26.065 81.4922 22.285 77.715C18.505 73.9378 15.5132 69.4928 13.3096 64.38C11.106 59.2672 10.0028 53.8072 10 48C9.99721 42.1928 11.1004 36.7328 13.3096 31.62C15.5188 26.5072 18.5106 22.0622 22.285 18.285C26.0594 14.5078 30.5044 11.516 35.62 9.3096C40.7356 7.1032 46.1956 6 52 6C57.8044 6 63.2644 7.1032 68.38 9.3096C73.4956 11.516 77.9406 14.5078 81.715 18.285C85.4894 22.0622 88.4826 26.5072 90.6946 31.62C92.9066 36.7328 94.0084 42.1928 94 48C93.9916 53.8072 92.8884 59.2672 90.6904 64.38C88.4924 69.4928 85.5006 73.9378 81.715 77.715C77.9294 81.4922 73.4844 84.4854 68.38 86.6946C63.2756 88.9038 57.8156 90.0056 52 90Z" fill="#35C218" shape-rendering="crispEdges"/>
<path d="M52 3C58.1955 3 64.0619 4.17968 69.5684 6.55469L70.582 7.00586C75.6099 9.3089 80.0361 12.3605 83.8369 16.1641L84.5869 16.9336C88.2869 20.8189 91.2401 25.3247 93.4482 30.4287C95.8304 35.9348 97.0089 41.8035 97 48.0039C96.9916 53.812 95.9546 59.3289 93.876 64.5293L93.4463 65.5645C91.1038 71.0134 87.9007 75.7812 83.834 79.8389C80.0248 83.6396 75.6005 86.6918 70.583 88.9971L69.5713 89.4482C64.0736 91.8276 58.2061 93.0046 52 92.999V93L51.998 92.999L51.9971 93V92.999C45.7974 92.9987 39.9318 91.8196 34.4307 89.4443C29.3281 87.2411 24.8213 84.2901 20.9336 80.5879L20.1641 79.8369C16.3581 76.0337 13.3058 71.6073 11.0049 66.5811L10.5547 65.5674C8.33092 60.4078 7.15536 54.9301 7.01465 49.1592L7 48.001C6.99707 41.802 8.17706 35.9345 10.5557 30.4297L11.0068 29.417C13.3119 24.3923 16.3632 19.9668 20.1631 16.1641L20.9316 15.4141C24.8158 11.7105 29.3233 8.75796 34.4316 6.55469L35.4688 6.12402C40.6731 4.03746 46.1917 3 52 3ZM69.8496 36.6152C69.4928 36.6153 69.2964 36.6849 69.1562 36.7842L69.0312 36.8916L46.1201 59.8027L34.9688 48.6514C34.8164 48.499 34.6257 48.3751 34.1504 48.375C33.7938 48.375 33.5972 48.4449 33.457 48.5439L33.3311 48.6514C33.1787 48.8037 33.0547 48.9945 33.0547 49.4697C33.0547 49.9453 33.1786 50.1366 33.3311 50.2891L45.3018 62.2588L45.416 62.3652C45.6752 62.5891 45.8818 62.6396 46.1201 62.6396C46.3923 62.6396 46.6233 62.5739 46.9385 62.2588L70.6689 38.5283L70.7764 38.4033C70.8755 38.2631 70.9453 38.0666 70.9453 37.71C70.9453 37.3533 70.8755 37.1568 70.7764 37.0166L70.6689 36.8916C70.5165 36.7392 70.3252 36.6152 69.8496 36.6152Z" stroke="black" stroke-opacity="0.8" stroke-width="6" shape-rendering="crispEdges"/>
</g>
<defs>
<filter id="filter0_d_53_1511" x="0" y="0" width="104" height="104" filterUnits="userSpaceOnUse" color-interpolation-filters="sRGB">
<feFlood flood-opacity="0" result="BackgroundImageFix"/>
<feColorMatrix in="SourceAlpha" type="matrix" values="0 0 0 0 0 0 0 0 0 0 0 0 0 0 0 0 0 0 127 0" result="hardAlpha"/>
<feOffset dy="4"/>
<feGaussianBlur stdDeviation="2"/>
<feComposite in2="hardAlpha" operator="out"/>
<feColorMatrix type="matrix" values="0 0 0 0 0 0 0 0 0 0 0 0 0 0 0 0 0 0 0.25 0"/>
<feBlend mode="normal" in2="BackgroundImageFix" result="effect1_dropShadow_53_1511"/>
<feBlend mode="normal" in="SourceGraphic" in2="effect1_dropShadow_53_1511" result="shape"/>
</filter>
</defs>
</svg>
