<svg width="40" height="40" viewBox="0 0 40 40" fill="none" xmlns="http://www.w3.org/2000/svg">
<path fill-rule="evenodd" clip-rule="evenodd" d="M19.5833 40C8.76721 40 0 31.0462 0 20C0 8.95375 8.76721 0 19.5833 0C30.3995 0 39.1667 8.95375 39.1667 20C39.1667 31.0462 30.3995 40 19.5833 40ZM21.9358 17.2412V14.2837H28.5623V9.77375H10.5199V14.2837H17.1464V17.24C11.761 17.4925 7.71094 18.5825 7.71094 19.8875C7.71094 21.1925 11.761 22.2812 17.1464 22.535V32.0125H21.9358V22.5325C27.3126 22.28 31.3529 21.1912 31.3529 19.8875C31.3529 18.5838 27.3126 17.495 21.9358 17.2412ZM21.9358 21.7288V21.7263C21.8011 21.7363 21.1072 21.7788 19.5589 21.7788C18.3227 21.7788 17.4524 21.7413 17.1464 21.7263V21.73C12.3877 21.5163 8.83575 20.67 8.83575 19.6575C8.83575 18.645 12.3877 17.8 17.1464 17.5825V20.8875C17.4573 20.91 18.3484 20.9638 19.5797 20.9638C21.057 20.9638 21.7975 20.9013 21.9358 20.8888V17.585C26.6847 17.8013 30.2281 18.6475 30.2281 19.6575C30.2281 20.67 26.6847 21.5138 21.9358 21.7288Z" fill="#C33737"/>
</svg>
